# xmcd
#
# Track frame offsets:
#	150
#	16018
#	33815
#	49338
#	72783
#	91623
#	107364
#	127263
#	149655
#	170947
#	182062
#	207873
#	229605
#	258788
#	283467
#	305247
#	321773
#
# Disc length: 4450
#
# Revision: 2
# Processed by: cddbd v1.5.1PL0 Copyright (c) Steve Scherf et al.
# Submitted via: MusiCat 1.1
# Normalized: r1:DSETVAR1,TDELIM( - ),TSWAP
#
DISCID=f6116011
DTITLE=Various Artist - Hot List from the Past
DYEAR=2000
DGENRE=
TTITLE0=Barbara Streisand - The Way We Were
TTITLE1=Jeffrey Osborne - On the Wings of Love
TTITLE2=Neil Diamond - Sweet Caroline
TTITLE3=George Duke - Shine On
TTITLE4=Blue Magic - Side Show
TTITLE5=Luther Ingram - If Loving You is Wrong
TTITLE6=Lionel Richie - The Only One
TTITLE7=Joe - I Wanna Know
TTITLE8=Melba Moore - Falling
TTITLE9=Marvin Gaye and Tammin Terrell - Ain't No Mountian High Enough
TTITLE10=Foxy - Get Off
TTITLE11=Grand Master Flash - It's Nasty
TTITLE12=Invisible Man's Band - All Night Thing
TTITLE13=One Way - Cutie Pie
TTITLE14=Wild Cherry - Play That Funky Music White Boy
TTITLE15=Grace Jones - Pull Up to My Bumper
TTITLE16=Stevie Wonder - Signed, Sealed, Delivered
EXTD=\n421\n
EXTT0=
EXTT1=
EXTT2=
EXTT3=
EXTT4=
EXTT5=
EXTT6=
EXTT7=
EXTT8=
EXTT9=
EXTT10=
EXTT11=
EXTT12=
EXTT13=
EXTT14=
EXTT15=
EXTT16=
PLAYORDER=
